<?xml version="1.0" standalone="no"?><!DOCTYPE svg PUBLIC "-//W3C//DTD SVG 1.1//EN" "http://www.w3.org/Graphics/SVG/1.1/DTD/svg11.dtd"><svg t="1663208494210" class="icon" viewBox="0 0 1024 1024" version="1.1" xmlns="http://www.w3.org/2000/svg" p-id="6324" xmlns:xlink="http://www.w3.org/1999/xlink" width="200" height="200"><path d="M921.6 339c-22.4-53-54.5-100.5-95.3-141.4-40.8-40.8-88.4-72.9-141.4-95.3-54.8-23.2-113.1-35-173.1-35s-118.3 11.8-173.1 35c-53 22.4-100.5 54.5-141.4 95.3S124.4 286 102 339c-23.2 54.8-35 113.1-35 173.1s11.8 118.3 35 173.1c22.4 53 54.5 100.5 95.3 141.4 40.8 40.8 88.4 72.9 141.4 95.3 54.8 23.2 113.1 35 173.1 35s118.3-11.8 173.1-35c53-22.4 100.5-54.5 141.4-95.3 40.8-40.8 72.9-88.4 95.3-141.4 23.2-54.8 35-113.1 35-173.1s-11.8-118.3-35-173.1zM117 512.1c0-217.7 177.1-394.8 394.8-394.8s394.8 177.1 394.8 394.8-177.1 394.8-394.8 394.8S117 729.8 117 512.1z" p-id="6325"></path><path d="M470.9 278.7c-9.8-9.8-25.6-9.8-35.4 0-9.8 9.8-9.8 25.6 0 35.4l196.9 197L435.6 706c-9.8 9.7-9.9 25.5-0.2 35.4 4.9 4.9 11.3 7.4 17.8 7.4 6.4 0 12.7-2.4 17.6-7.2l214.6-212.7c4.7-4.7 7.4-11 7.4-17.7 0-6.6-2.6-13-7.3-17.7L470.9 278.7z" p-id="6326"></path></svg>